<?xml version="1.0" encoding="UTF-8" standalone="no"?>
<svg
   xmlns:osb="http://www.openswatchbook.org/uri/2009/osb"
   xmlns:dc="http://purl.org/dc/elements/1.1/"
   xmlns:cc="http://creativecommons.org/ns#"
   xmlns:rdf="http://www.w3.org/1999/02/22-rdf-syntax-ns#"
   xmlns:svg="http://www.w3.org/2000/svg"
   xmlns="http://www.w3.org/2000/svg"
   xmlns:xlink="http://www.w3.org/1999/xlink"
   xmlns:sodipodi="http://sodipodi.sourceforge.net/DTD/sodipodi-0.dtd"
   xmlns:inkscape="http://www.inkscape.org/namespaces/inkscape"
   id="Layer_1"
   style="enable-background:new 0 0 200 200;"
   version="1.1"
   viewBox="0 0 200 200"
   xml:space="preserve"
   sodipodi:docname="nv_sil2.svg"
   inkscape:version="0.92.1 r15371"><metadata
     id="metadata27"><rdf:RDF><cc:Work
         rdf:about=""><dc:format>image/svg+xml</dc:format><dc:type
           rdf:resource="http://purl.org/dc/dcmitype/StillImage" /><dc:title></dc:title></cc:Work></rdf:RDF></metadata><defs
     id="defs25"><linearGradient
       id="linearGradient5967"
       osb:paint="solid"><stop
         style="stop-color:#eeffff;stop-opacity:1;"
         offset="0"
         id="stop5965" /></linearGradient><linearGradient
       inkscape:collect="always"
       xlink:href="#linearGradient5967"
       id="linearGradient5969"
       x1="61.431"
       y1="100"
       x2="138.57"
       y2="100"
       gradientUnits="userSpaceOnUse" /></defs><sodipodi:namedview
     pagecolor="#ffffff"
     bordercolor="#666666"
     borderopacity="1"
     objecttolerance="10"
     gridtolerance="10"
     guidetolerance="10"
     inkscape:pageopacity="0"
     inkscape:pageshadow="2"
     inkscape:window-width="781"
     inkscape:window-height="779"
     id="namedview23"
     showgrid="false"
     inkscape:zoom="1.668772"
     inkscape:cx="104.4854"
     inkscape:cy="26.633776"
     inkscape:window-x="629"
     inkscape:window-y="2"
     inkscape:window-maximized="0"
     inkscape:current-layer="Layer_1" /><style
     type="text/css"
     id="style2">
	.st0{fill:#DF5B44;}
	.st1{opacity:0.3;}
	.st2{fill:#FFE2DE;}
</style><rect
     class="st0"
     height="180"
     width="180"
     x="10"
     y="10"
     id="rect4"
     style="fill:#c90000;fill-opacity:1" /><path
     class="st1"
     d="m 187.23149,112.21114 v 78.46 H 93.661383 L 58.661438,155.67113 V 96.711128 h 8.999948 l -8.999948,-9 v -9.000004 h 8.999948 l -8.999948,-9.00002 v -8.999997 h 20.809933 c 1.450015,-8.53001 8.850041,-15.03999 17.760003,-15.03999 5.109996,0 9.719996,2.149999 12.999996,5.589984 0.17,0.17 9.31004,9.290006 9.45004,9.450006 h 16.12008 z"
     id="path6"
     inkscape:connector-curvature="0"
     style="opacity:0.3;fill:#000000;fill-opacity:1" /><g
     id="g20"
     style="fill-opacity:1;fill:url(#linearGradient5969)"><polygon
       class="st2"
       points="61.431,87.036 129.57,87.036 129.57,137 138.569,137 138.569,78.036 61.431,78.036  "
       id="polygon8"
       style="fill-opacity:1;fill:url(#linearGradient5969)" /><polygon
       class="st2"
       points="70.431,96.036 61.431,96.036 61.431,155 138.569,155 138.569,146 70.431,146  "
       id="polygon10"
       style="fill-opacity:1;fill:url(#linearGradient5969)" /><rect
       class="st2"
       height="40.964"
       width="9"
       x="78.465"
       y="96.036"
       id="rect12"
       style="fill-opacity:1;fill:url(#linearGradient5969)" /><rect
       class="st2"
       height="40.964"
       width="9"
       x="95.5"
       y="96.036"
       id="rect14"
       style="fill-opacity:1;fill:url(#linearGradient5969)" /><rect
       class="st2"
       height="40.964"
       width="9"
       x="112.535"
       y="96.036"
       id="rect16"
       style="fill-opacity:1;fill:url(#linearGradient5969)" /><path
       class="st2"
       d="M117.756,60.036C116.311,51.515,108.91,45,100,45s-16.311,6.515-17.756,15.036H61.431v9h20.54h36.06h20.539v-9   H117.756z M91.489,60.036C92.733,56.522,96.079,54,100,54s7.267,2.522,8.512,6.036H91.489z"
       id="path18"
       style="fill-opacity:1;fill:url(#linearGradient5969)" /></g></svg>