<?xml version="1.0" ?><svg height="512" id="Layer_1" version="1.1" viewBox="0 0 512 512" width="512" xml:space="preserve" xmlns="http://www.w3.org/2000/svg" xmlns:cc="http://creativecommons.org/ns#" xmlns:dc="http://purl.org/dc/elements/1.1/" xmlns:inkscape="http://www.inkscape.org/namespaces/inkscape" xmlns:rdf="http://www.w3.org/1999/02/22-rdf-syntax-ns#" xmlns:sodipodi="http://sodipodi.sourceforge.net/DTD/sodipodi-0.dtd" xmlns:svg="http://www.w3.org/2000/svg"><defs id="defs12"/><g id="g3573"><rect height="512" id="rect2987" rx="64" ry="64" style="fill:#ff835e;fill-opacity:1;fill-rule:nonzero;stroke:none" width="512" x="0" y="0"/><path d="m 208.1566,57.052201 0,151.098199 -151.098199,0 0,95.6992 151.098199,0 0,151.0982 95.6992,0 0,-151.0982 151.0858,0 0,-95.6992 -151.0858,0 0,-151.098199 -95.6992,0 z" id="rect11551" style="fill:#ffffff;fill-opacity:1;fill-rule:nonzero;stroke:none"/></g><path d="m 18.69574,493.28751 c 11.56798,11.5679 27.57606,18.7125 45.30404,18.7125 l 384.01255,-0.029 c 35.456,0 63.9877,-28.5316 63.9877,-63.98759 l 0,-383.983685 c 0,-17.72798 -7.1446,-33.73603 -18.7126,-45.30403 L 18.69574,493.28751 z" id="rect2984-1" style="fill:#000000;fill-opacity:0.30196078;fill-rule:nonzero;stroke:none"/></svg>