<?xml version="1.0" ?><svg id="Layer_1" style="enable-background:new 0 0 200 200;" version="1.1" viewBox="0 0 200 200" xml:space="preserve" xmlns="http://www.w3.org/2000/svg" xmlns:xlink="http://www.w3.org/1999/xlink"><style type="text/css">
	.st0{fill:#DF5B44;}
	.st1{opacity:0.3;}
	.st2{fill:#FFE2DE;}
</style><rect class="st0" height="180" width="180" x="10" y="10"/><path class="st1" d="M190,111.54V190H96.43l-35-35V96.04h9l-9-9v-9h9l-9-9v-9h20.81C83.69,51.51,91.09,45,100,45  c5.11,0,9.72,2.15,13,5.59c0.17,0.17,9.31,9.29,9.45,9.45h16.12L190,111.54z"/><g><polygon class="st2" points="61.431,87.036 129.57,87.036 129.57,137 138.569,137 138.569,78.036 61.431,78.036  "/><polygon class="st2" points="70.431,96.036 61.431,96.036 61.431,155 138.569,155 138.569,146 70.431,146  "/><rect class="st2" height="40.964" width="9" x="78.465" y="96.036"/><rect class="st2" height="40.964" width="9" x="95.5" y="96.036"/><rect class="st2" height="40.964" width="9" x="112.535" y="96.036"/><path class="st2" d="M117.756,60.036C116.311,51.515,108.91,45,100,45s-16.311,6.515-17.756,15.036H61.431v9h20.54h36.06h20.539v-9   H117.756z M91.489,60.036C92.733,56.522,96.079,54,100,54s7.267,2.522,8.512,6.036H91.489z"/></g></svg>