<?xml version="1.0" encoding="UTF-8" standalone="no"?>
<!-- Generator: Adobe Illustrator 19.0.0, SVG Export Plug-In . SVG Version: 6.00 Build 0)  -->

<svg
   xmlns:osb="http://www.openswatchbook.org/uri/2009/osb"
   xmlns:dc="http://purl.org/dc/elements/1.1/"
   xmlns:cc="http://creativecommons.org/ns#"
   xmlns:rdf="http://www.w3.org/1999/02/22-rdf-syntax-ns#"
   xmlns:svg="http://www.w3.org/2000/svg"
   xmlns="http://www.w3.org/2000/svg"
   xmlns:xlink="http://www.w3.org/1999/xlink"
   xmlns:sodipodi="http://sodipodi.sourceforge.net/DTD/sodipodi-0.dtd"
   xmlns:inkscape="http://www.inkscape.org/namespaces/inkscape"
   version="1.1"
   id="Layer_1"
   x="0px"
   y="0px"
   viewBox="0 0 496 496"
   style="enable-background:new 0 0 496 496;"
   xml:space="preserve"
   sodipodi:docname="rsm_yok2.svg"
   inkscape:version="0.92.1 r15371"><metadata
     id="metadata99"><rdf:RDF><cc:Work
         rdf:about=""><dc:format>image/svg+xml</dc:format><dc:type
           rdf:resource="http://purl.org/dc/dcmitype/StillImage" /><dc:title></dc:title></cc:Work></rdf:RDF></metadata><defs
     id="defs97"><linearGradient
       id="linearGradient6058"
       osb:paint="solid"><stop
         style="stop-color:#ff0000;stop-opacity:1;"
         offset="0"
         id="stop6056" /></linearGradient><linearGradient
       inkscape:collect="always"
       xlink:href="#linearGradient6058"
       id="linearGradient6299"
       gradientUnits="userSpaceOnUse"
       gradientTransform="matrix(1.0049847,0,0,1.0049848,15.162124,242.15185)"
       x1="-2.1903231"
       y1="236.3584"
       x2="514.03229"
       y2="236.3584" /><linearGradient
       inkscape:collect="always"
       xlink:href="#linearGradient6058"
       id="linearGradient6303"
       gradientUnits="userSpaceOnUse"
       gradientTransform="matrix(1.2257478,0,0,1.2257479,32.982691,11.147953)"
       x1="-2.1903231"
       y1="236.3584"
       x2="514.03227"
       y2="236.3584" /><linearGradient
       inkscape:collect="always"
       xlink:href="#linearGradient6058"
       id="linearGradient6307"
       gradientUnits="userSpaceOnUse"
       gradientTransform="matrix(1.3938261,0,0,1.3938261,30.570724,228.25442)"
       x1="-2.1903231"
       y1="236.3584"
       x2="514.03229"
       y2="236.3584" /></defs><sodipodi:namedview
     pagecolor="#ffffff"
     bordercolor="#666666"
     borderopacity="1"
     objecttolerance="10"
     gridtolerance="10"
     guidetolerance="10"
     inkscape:pageopacity="0"
     inkscape:pageshadow="2"
     inkscape:window-width="1440"
     inkscape:window-height="836"
     id="namedview95"
     showgrid="false"
     inkscape:zoom="0.9516129"
     inkscape:cx="466.15552"
     inkscape:cy="314.62399"
     inkscape:window-x="0"
     inkscape:window-y="0"
     inkscape:window-maximized="1"
     inkscape:current-layer="Layer_1" /><path
     style="fill:#516266;"
     d="M24,480c-4.8,0-8-3.2-8-8V24c0-4.8,3.2-8,8-8h448c4.8,0,8,3.2,8,8v448c0,4.8-3.2,8-8,8H24z"
     id="path2" /><path
     style="fill:#324144;"
     d="M472,0c12.8,0,24,10.4,24,24v448c0,12.8-10.4,24-24,24H24c-12.8,0-24-10.4-24-24"
     id="path4" /><g
     id="g16"
     transform="translate(-4.8,-60)"><path
       style="fill:#657375"
       d="m 196.8,227.2 c -8.8,0 -16.8,3.2 -22.4,8.8 -3.2,-4 -8.8,-7.2 -14.4,-7.2 -4.8,0 -9.6,2.4 -12.8,5.6 -3.2,-2.4 -7.2,-4 -11.2,-4.8 -2.4,-10.4 -12,-18.4 -23.2,-18.4 -4,0 -8,0.8 -11.2,2.4 -0.8,-6.4 -6.4,-11.2 -12.8,-12 0,-1.6 0.8,-3.2 0.8,-4 0,-8 -2.4,-15.2 -6.4,-21.6 4.8,-2.4 8.8,-7.2 8.8,-12.8 0,-8 -6.4,-13.6 -13.6,-13.6 0,0 0,0 -0.8,0 0,-0.8 0,-1.6 0,-2.4 0,-20 -16,-36 -36,-36 -20,0 -36,16 -36,36 0,11.2 5.6,20.8 13.6,28 -4.8,6.4 -7.2,14.4 -7.2,22.4 0,14.4 8,26.4 19.2,33.6 -5.6,8 -9.6,18.4 -9.6,28.8 0,27.2 22.4,49.6 49.6,49.6 17.6,0 32.8,-8.8 41.6,-22.4 4.8,2.4 9.6,4 15.2,4 14.4,0 26.4,-9.6 30.4,-23.2 0.8,0 1.6,0 2.4,0 1.6,0 3.2,0 4,-0.8 3.2,15.2 16.8,27.2 32.8,27.2 18.4,0 33.6,-15.2 33.6,-33.6 -0.8,-18.4 -16,-33.6 -34.4,-33.6 z"
       id="path12"
       inkscape:connector-curvature="0" /><path
       style="fill:#657375"
       d="m 496,261.6 v -58.4 c -5.6,-6.4 -12,-11.2 -20,-14.4 9.6,-8.8 16,-21.6 16,-35.2 0,-26.4 -21.6,-48 -48,-48 -26.4,0 -48,21.6 -48,48 v 0.8 c -20,1.6 -36,17.6 -38.4,37.6 -2.4,-0.8 -4.8,-1.6 -7.2,-1.6 -8,0 -14.4,5.6 -16.8,12.8 -20,3.2 -35.2,20 -35.2,40 0,20 14.4,36.8 32.8,40 0.8,18.4 16,33.6 34.4,33.6 12,0 23.2,-6.4 28.8,-16 6.4,3.2 14.4,5.6 22.4,5.6 10.4,0 20,-3.2 28,-8.8 4,9.6 13.6,16 24.8,16 11.2,0 20,-6.4 24.8,-16 V 276 c -1.6,-3.2 -4,-6.4 -6.4,-8.8 4,-0.8 6.4,-3.2 8,-5.6 z"
       id="path14"
       inkscape:connector-curvature="0" /></g><rect
     x="24"
     y="264"
     style="fill:#00ADDB;"
     width="456"
     height="104"
     id="rect18" /><g
     id="g10"><path
       style="fill:#7E8687;"
       d="M196.8,216c-8.8,0-16.8,3.2-22.4,8.8c-3.2-4-8.8-7.2-14.4-7.2c-4.8,0-9.6,2.4-12.8,5.6   c-3.2-2.4-7.2-4-11.2-5.6c-2.4-10.4-12-18.4-23.2-18.4c-4,0-8,0.8-11.2,2.4c-0.8-6.4-6.4-11.2-12.8-12c0-1.6,0.8-3.2,0.8-4   c0-8-2.4-15.2-6.4-21.6c4.8-2.4,8.8-7.2,8.8-12.8c0-8-6.4-13.6-13.6-13.6c0,0,0,0-0.8,0c0-0.8,0-1.6,0-2.4c0-20-16-36-36-36   s-36,16-36,36c0,11.2,5.6,20.8,13.6,28c-4.8,6.4-7.2,14.4-7.2,22.4c0,14.4,8,26.4,19.2,33.6c-5.6,8-9.6,18.4-9.6,28.8   c0,27.2,22.4,49.6,49.6,49.6c17.6,0,32.8-8.8,41.6-22.4c4.8,2.4,9.6,4,15.2,4c14.4,0,26.4-9.6,30.4-23.2c0.8,0,1.6,0,2.4,0   c1.6,0,3.2,0,4-0.8c3.2,15.2,16.8,27.2,32.8,27.2c18.4,0,33.6-15.2,33.6-33.6C230.4,231.2,215.2,216,196.8,216z"
       id="path6" /><path
       style="fill:#7E8687;"
       d="M496,251.2V192c-5.6-6.4-12-11.2-20-14.4c9.6-8.8,16-21.6,16-35.2c0-26.4-21.6-48-48-48   s-48,21.6-48,48v0.8c-20,1.6-36,17.6-38.4,37.6c-2.4-0.8-4.8-1.6-7.2-1.6c-8,0-14.4,5.6-16.8,12.8c-20,3.2-35.2,20-35.2,40   s14.4,36.8,32.8,40c0.8,18.4,16,33.6,34.4,33.6c12,0,23.2-6.4,28.8-16c6.4,3.2,14.4,5.6,22.4,5.6c10.4,0,20-3.2,28-8.8   c4,9.6,13.6,16,24.8,16c11.2,0,20-6.4,24.8-16v-21.6c-1.6-3.2-4-6.4-6.4-8.8C492,255.2,494.4,252.8,496,251.2z"
       id="path8" /></g><path
     style="fill:#E8E8E8;"
     d="M472,0H24C10.4,0,0,10.4,0,24v448c0,12.8,10.4,24,24,24h448c12.8,0,24-10.4,24-24V24  C496,10.4,485.6,0,472,0z M464,32v288H32V32H464z"
     id="path20" /><path
     style="fill:#F2F2F2;"
     d="M24,496h27.2l173.6-176H32V32h432v49.6l32-31.2V24c0-12.8-10.4-24-24-24H24C10.4,0,0,10.4,0,24v448  C0,485.6,10.4,496,24,496z"
     id="path22" /><path
     style="fill:#EAE4BE;"
     d="M169.6,179.2c-11.2,0-22.4-4.8-30.4-12.8S126.4,148,126.4,136s4.8-22.4,12.8-30.4  c4.8-4.8,12-4.8,16.8,0s4.8,12,0,16.8c-4,4-5.6,8.8-5.6,13.6s2.4,10.4,5.6,13.6c7.2,7.2,20,7.2,27.2,0c4.8-4.8,12-4.8,16.8,0  s4.8,12,0,16.8C192,174.4,181.6,179.2,169.6,179.2z"
     id="path24" /><path
     style="fill:#FCF8E6;"
     d="M184,149.6c-7.2,7.2-20,7.2-27.2,0c-4-4-5.6-8.8-5.6-13.6s2.4-10.4,5.6-13.6c4.8-4.8,4.8-12,0-16.8  c-3.2-3.2-7.2-4-11.2-3.2c-6.4,8.8-9.6,17.6-9.6,27.2c0,11.2,4.8,22.4,12.8,30.4s18.4,12.8,30.4,12.8c8,0,15.2-2.4,21.6-6.4  c4.8-4.8,4-12,0-16C195.2,145.6,188,145.6,184,149.6z"
     id="path26" /><path
     style="fill:#19CBF4;"
     d="M382.4,264h-12l-93.6-124.8c-4-5.6-14.4-5.6-18.4,0.8l-68.8,92.8L172,209.6c-4-5.6-14.4-7.2-18.4-1.6  l-42.4,56H98.4c-6.4,0-12,5.6-12,12s5.6,12,12,12h15.2c1.6,0,4,0,5.6,0h48c0.8,0,1.6,0.8,2.4,0.8c0.8,0,1.6-0.8,3.2-0.8h32.8  c0.8,0,1.6,0.8,3.2,0.8c0.8,0,1.6-0.8,2.4-0.8h151.2c1.6,0,4,0,5.6,0h14.4c6.4,0,12-5.6,12-12C394.4,269.6,388.8,264,382.4,264z"
     id="path28" /><g
     id="g46"><path
       style="fill:#EAE4BE;"
       d="M201.6,50.4c0,1.6-0.8,2.4-2.4,2.4s-2.4-0.8-2.4-2.4c0-1.6,0.8-2.4,2.4-2.4S201.6,49.6,201.6,50.4z"
       id="path32" /><circle
       style="fill:#EAE4BE;"
       cx="228.8"
       cy="64"
       r="4.8"
       id="circle34" /><circle
       style="fill:#EAE4BE;"
       cx="261.6"
       cy="42.4"
       r="1.6"
       id="circle36" /><circle
       style="fill:#EAE4BE;"
       cx="280"
       cy="94.4"
       r="5.6"
       id="circle38" /><circle
       style="fill:#EAE4BE;"
       cx="194.4"
       cy="81.6"
       r="1.6"
       id="circle40" /><circle
       style="fill:#EAE4BE;"
       cx="228.8"
       cy="93.6"
       r="4"
       id="circle42" /><circle
       style="fill:#EAE4BE;"
       cx="152.8"
       cy="54.4"
       r="3.2"
       id="circle44" /></g><path
     style="fill:#FCF8E6;"
     d="M276.8,140.8c-4-5.6-14.4-6.4-18.4-0.8l-32.8,44.8l20,20l12-12l12,12l12-12l12,12l19.2-19.2  L276.8,140.8z"
     id="path48" /><path
     style="fill:#EAE4BE;"
     d="M244.8,204.8l12-12l12,12l12-12l12,12l20-20l-34.4-45.6c-4-5.6-14.4-5.6-18.4,0.8l-24,54.4  L244.8,204.8z"
     id="path50" /><path
     style="fill:#00ADDB;"
     d="M382.4,264h-12l-93.6-124.8c-4-5.6-14.4-5.6-18.4,0.8l-52,115.2L172,209.6c-4-5.6-14.4-7.2-18.4-1.6  l-24,56H98.4c-6.4,0-12,5.6-12,12s5.6,12,12,12h15.2c1.6,0,4,0,5.6,0h48c0.8,0,1.6,0.8,2.4,0.8c0.8,0,1.6-0.8,3.2-0.8h32.8  c0.8,0,1.6,0.8,3.2,0.8c0.8,0,1.6-0.8,2.4-0.8h151.2c1.6,0,4,0,5.6,0h14.4c6.4,0,12-5.6,12-12S388.8,264,382.4,264z"
     id="path30" /><circle
     style="opacity:0.3;fill:#9AA5A4;enable-background:new    ;"
     cx="379.2"
     cy="379.2"
     r="116.8"
     id="circle54" /><rect
     x="32"
     y="320"
     style="fill:#E8E8E8;"
     width="448"
     height="24"
     id="rect52" /><path
     style="fill:#44A307;"
     d="M364.8,262.4c64.8,0,116.8,52,116.8,116.8S429.6,496,364.8,496"
     id="path58" /><g
     id="g64" /><g
     id="g66" /><g
     id="g68" /><g
     id="g70" /><g
     id="g72" /><g
     id="g74" /><g
     id="g76" /><g
     id="g78" /><g
     id="g80" /><g
     id="g82" /><g
     id="g84" /><g
     id="g86" /><g
     id="g88" /><g
     id="g90" /><g
     id="g92" /><text
     xml:space="preserve"
     style="font-style:normal;font-weight:normal;font-size:168.212677px;line-height:1.25;font-family:sans-serif;letter-spacing:0px;word-spacing:0px;fill:url(#linearGradient6303);fill-opacity:1;stroke:none;stroke-width:4.20531702"
     x="30.297913"
     y="143.1265"
     id="text4578"
     transform="scale(0.7486339,1.3357664)"><tspan
       sodipodi:role="line"
       id="tspan4576"
       x="30.297913"
       y="143.1265"
       style="font-style:normal;font-variant:normal;font-weight:bold;font-stretch:normal;font-size:168.21002197px;font-family:Caladea;-inkscape-font-specification:'Caladea, Bold';font-variant-ligatures:normal;font-variant-caps:normal;font-variant-numeric:normal;font-feature-settings:normal;text-align:start;writing-mode:lr-tb;text-anchor:start;fill:url(#linearGradient6303);fill-opacity:1;stroke-width:4.20531702">KAYITLI </tspan><tspan
       sodipodi:role="line"
       x="30.297913"
       y="353.39233"
       id="tspan4580"
       style="font-style:normal;font-variant:normal;font-weight:bold;font-stretch:normal;font-size:168.21002197px;font-family:Caladea;-inkscape-font-specification:'Caladea, Bold';font-variant-ligatures:normal;font-variant-caps:normal;font-variant-numeric:normal;font-feature-settings:normal;text-align:start;writing-mode:lr-tb;text-anchor:start;fill:url(#linearGradient6303);fill-opacity:1;stroke-width:4.20531702" /></text>
<flowRoot
     xml:space="preserve"
     id="flowRoot4584"
     style="fill:black;fill-opacity:1;stroke:none;font-family:sans-serif;font-style:normal;font-weight:normal;font-size:40px;line-height:1.25;letter-spacing:0px;word-spacing:0px"><flowRegion
       id="flowRegion4586"><rect
         id="rect4588"
         width="113.0983"
         height="253.81017"
         x="256.79999"
         y="192.8" /></flowRegion><flowPara
       id="flowPara4590"></flowPara></flowRoot><path
     style="fill:#4DB20D;"
     d="M281.6,296.8c45.6-45.6,120-45.6,165.6,0s45.6,120,0,165.6"
     id="path60" /><circle
     style="fill:#5AC117;"
     cx="364.8"
     cy="379.2"
     r="116.8"
     id="circle56" /><path
     style="fill:#FFFFFF;"
     d="M423.2,368H376v-48c0-6.4-5.6-12-12-12s-12,5.6-12,12v48h-46.4c-6.4,0-12,5.6-12,12s5.6,12,12,12H352  v45.6c0,6.4,5.6,12,12,12s12-5.6,12-12V392h47.2c6.4,0,12-5.6,12-12S429.6,368,423.2,368z"
     id="path62" /><text
     xml:space="preserve"
     style="font-style:normal;font-weight:normal;font-size:191.27848816px;line-height:1.25;font-family:sans-serif;letter-spacing:0px;word-spacing:0px;fill:url(#linearGradient6307);fill-opacity:1;stroke:none;stroke-width:4.78196239"
     x="27.517807"
     y="378.33029"
     id="text4578-3"
     transform="scale(0.80078746,1.2487708)"><tspan
       sodipodi:role="line"
       id="tspan4576-0"
       x="27.517807"
       y="378.33029"
       style="font-style:normal;font-variant:normal;font-weight:bold;font-stretch:normal;font-size:191.27548218px;font-family:Caladea;-inkscape-font-specification:'Caladea, Bold';font-variant-ligatures:normal;font-variant-caps:normal;font-variant-numeric:normal;font-feature-settings:normal;text-align:start;writing-mode:lr-tb;text-anchor:start;fill:url(#linearGradient6307);fill-opacity:1;stroke-width:4.78196239">YOK </tspan><tspan
       sodipodi:role="line"
       x="27.517807"
       y="617.42841"
       id="tspan4580-4"
       style="font-style:normal;font-variant:normal;font-weight:bold;font-stretch:normal;font-size:191.27548218px;font-family:Caladea;-inkscape-font-specification:'Caladea, Bold';font-variant-ligatures:normal;font-variant-caps:normal;font-variant-numeric:normal;font-feature-settings:normal;text-align:start;writing-mode:lr-tb;text-anchor:start;fill:url(#linearGradient6307);fill-opacity:1;stroke-width:4.78196239" /></text>
<text
     xml:space="preserve"
     style="font-style:normal;font-weight:normal;font-size:137.91674805px;line-height:1.25;font-family:sans-serif;letter-spacing:0px;word-spacing:0px;fill:url(#linearGradient6299);fill-opacity:1;stroke:none;stroke-width:3.44791889"
     x="12.96089"
     y="350.36041"
     id="text4578-4"
     transform="scale(1.1668388,0.85701641)"><tspan
       sodipodi:role="line"
       x="12.96089"
       y="350.36041"
       style="font-style:normal;font-variant:normal;font-weight:bold;font-stretch:normal;font-size:137.91456604px;font-family:Caladea;-inkscape-font-specification:'Caladea, Bold';font-variant-ligatures:normal;font-variant-caps:normal;font-variant-numeric:normal;font-feature-settings:normal;text-align:start;writing-mode:lr-tb;text-anchor:start;fill:url(#linearGradient6299);fill-opacity:1;stroke-width:3.44791889"
       id="tspan6233">RESİM</tspan><tspan
       sodipodi:role="line"
       x="12.96089"
       y="522.75629"
       id="tspan4580-1"
       style="font-style:normal;font-variant:normal;font-weight:bold;font-stretch:normal;font-size:137.91456604px;font-family:Caladea;-inkscape-font-specification:'Caladea, Bold';font-variant-ligatures:normal;font-variant-caps:normal;font-variant-numeric:normal;font-feature-settings:normal;text-align:start;writing-mode:lr-tb;text-anchor:start;fill:url(#linearGradient6299);fill-opacity:1;stroke-width:3.44791889" /></text>
</svg>