<?xml version="1.0" encoding="UTF-8" standalone="no"?>
<!-- Generator: Adobe Illustrator 19.0.0, SVG Export Plug-In . SVG Version: 6.00 Build 0)  -->

<svg
   xmlns:osb="http://www.openswatchbook.org/uri/2009/osb"
   xmlns:dc="http://purl.org/dc/elements/1.1/"
   xmlns:cc="http://creativecommons.org/ns#"
   xmlns:rdf="http://www.w3.org/1999/02/22-rdf-syntax-ns#"
   xmlns:svg="http://www.w3.org/2000/svg"
   xmlns="http://www.w3.org/2000/svg"
   xmlns:xlink="http://www.w3.org/1999/xlink"
   xmlns:sodipodi="http://sodipodi.sourceforge.net/DTD/sodipodi-0.dtd"
   xmlns:inkscape="http://www.inkscape.org/namespaces/inkscape"
   version="1.1"
   id="Layer_1"
   x="0px"
   y="0px"
   viewBox="0 0 492.09866 498.80951"
   xml:space="preserve"
   sodipodi:docname="rsm_yok.svg"
   inkscape:version="0.92.1 r15371"
   width="492.09866"
   height="498.80951"><metadata
     id="metadata99"><rdf:RDF><cc:Work
         rdf:about=""><dc:format>image/svg+xml</dc:format><dc:type
           rdf:resource="http://purl.org/dc/dcmitype/StillImage" /><dc:title></dc:title></cc:Work></rdf:RDF></metadata><defs
     id="defs97"><linearGradient
       id="linearGradient6058"
       osb:paint="solid"><stop
         style="stop-color:#ff0000;stop-opacity:0.12941177;"
         offset="0"
         id="stop6056" /></linearGradient><filter
       inkscape:collect="always"
       style="color-interpolation-filters:sRGB"
       id="filter4981"
       x="-0.11670163"
       width="1.2334033"
       y="-0.27097765"
       height="1.5419554"><feGaussianBlur
         inkscape:collect="always"
         stdDeviation="23.846033"
         id="feGaussianBlur4983" /></filter><linearGradient
       inkscape:collect="always"
       xlink:href="#linearGradient6058"
       id="linearGradient5602"
       gradientUnits="userSpaceOnUse"
       gradientTransform="matrix(1.1815834,0,0,1.1815834,111.65114,311.0821)"
       x1="-2.1903231"
       y1="236.3584"
       x2="514.03229"
       y2="236.3584" /><linearGradient
       inkscape:collect="always"
       xlink:href="#linearGradient6058"
       id="linearGradient5606"
       gradientUnits="userSpaceOnUse"
       gradientTransform="matrix(1.0049847,0,0,1.0049848,16.125323,9.5704537)"
       x1="-2.1903231"
       y1="236.3584"
       x2="514.03229"
       y2="236.3584" /></defs><sodipodi:namedview
     pagecolor="#ffffff"
     bordercolor="#666666"
     borderopacity="1"
     objecttolerance="10"
     gridtolerance="10"
     guidetolerance="10"
     inkscape:pageopacity="0"
     inkscape:pageshadow="2"
     inkscape:window-width="1440"
     inkscape:window-height="836"
     id="namedview95"
     showgrid="false"
     inkscape:zoom="0.9516129"
     inkscape:cx="286.00823"
     inkscape:cy="217.26805"
     inkscape:window-x="0"
     inkscape:window-y="0"
     inkscape:window-maximized="1"
     inkscape:current-layer="Layer_1" /><g
     id="g10"
     transform="matrix(0.81357315,0,0,1,42.005173,39.277314)"
     style="opacity:0.65899999;filter:url(#filter4981)"><path
       style="fill:#7e8687"
       d="m 196.8,216 c -8.8,0 -16.8,3.2 -22.4,8.8 -3.2,-4 -8.8,-7.2 -14.4,-7.2 -4.8,0 -9.6,2.4 -12.8,5.6 -3.2,-2.4 -7.2,-4 -11.2,-5.6 -2.4,-10.4 -12,-18.4 -23.2,-18.4 -4,0 -8,0.8 -11.2,2.4 -0.8,-6.4 -6.4,-11.2 -12.8,-12 0,-1.6 0.8,-3.2 0.8,-4 0,-8 -2.4,-15.2 -6.4,-21.6 4.8,-2.4 8.8,-7.2 8.8,-12.8 0,-8 -6.4,-13.6 -13.6,-13.6 0,0 0,0 -0.8,0 0,-0.8 0,-1.6 0,-2.4 0,-20 -16,-36 -36,-36 -20,0 -36,16 -36,36 0,11.2 5.6,20.8 13.6,28 -4.8,6.4 -7.2,14.4 -7.2,22.4 0,14.4 8,26.4 19.2,33.6 -5.6,8 -9.6,18.4 -9.6,28.8 0,27.2 22.4,49.6 49.6,49.6 17.6,0 32.8,-8.8 41.6,-22.4 4.8,2.4 9.6,4 15.2,4 14.4,0 26.4,-9.6 30.4,-23.2 0.8,0 1.6,0 2.4,0 1.6,0 3.2,0 4,-0.8 3.2,15.2 16.8,27.2 32.8,27.2 18.4,0 33.6,-15.2 33.6,-33.6 -0.8,-17.6 -16,-32.8 -34.4,-32.8 z"
       id="path6"
       inkscape:connector-curvature="0" /><path
       style="fill:#7e8687"
       d="M 496,251.2 V 192 c -5.6,-6.4 -12,-11.2 -20,-14.4 9.6,-8.8 16,-21.6 16,-35.2 0,-26.4 -21.6,-48 -48,-48 -26.4,0 -48,21.6 -48,48 v 0.8 c -20,1.6 -36,17.6 -38.4,37.6 -2.4,-0.8 -4.8,-1.6 -7.2,-1.6 -8,0 -14.4,5.6 -16.8,12.8 -20,3.2 -35.2,20 -35.2,40 0,20 14.4,36.8 32.8,40 0.8,18.4 16,33.6 34.4,33.6 12,0 23.2,-6.4 28.8,-16 6.4,3.2 14.4,5.6 22.4,5.6 10.4,0 20,-3.2 28,-8.8 4,9.6 13.6,16 24.8,16 11.2,0 20,-6.4 24.8,-16 v -21.6 c -1.6,-3.2 -4,-6.4 -6.4,-8.8 4,-0.8 6.4,-3.2 8,-4.8 z"
       id="path8"
       inkscape:connector-curvature="0" /></g><path
     style="fill:#19cbf4"
     d="m 389.82897,317.92816 h -12 l -93.6,-124.8 c -4,-5.6 -14.4,-5.6 -18.4,0.8 l -68.8,92.8 -17.6,-23.2 c -4,-5.6 -14.4,-7.2 -18.4,-1.6 l -42.4,56 h -12.8 c -6.399991,0 -11.999991,5.6 -11.999991,12 0,6.4 5.6,12 11.999991,12 h 15.2 c 1.6,0 4,0 5.6,0 h 48 c 0.8,0 1.6,0.8 2.4,0.8 0.8,0 1.6,-0.8 3.2,-0.8 h 32.8 c 0.8,0 1.6,0.8 3.2,0.8 0.8,0 1.6,-0.8 2.4,-0.8 h 151.2 c 1.6,0 4,0 5.6,0 h 14.4 c 6.4,0 12,-5.6 12,-12 0,-6.4 -5.6,-12 -12,-12 z"
     id="path28"
     inkscape:connector-curvature="0" /><path
     style="fill:#fcf8e6"
     d="m 284.22897,194.72816 c -4,-5.6 -14.4,-6.4 -18.4,-0.8 l -32.8,44.8 20,20 12,-12 12,12 12,-12 12,12 19.2,-19.2 z"
     id="path48"
     inkscape:connector-curvature="0" /><path
     style="fill:#00addb;fill-opacity:0.16455694"
     d="m 389.82897,317.92816 h -12 l -93.6,-124.8 c -4,-5.6 -14.4,-5.6 -18.4,0.8 l -52,115.2 -34.4,-45.6 c -4,-5.6 -14.4,-7.2 -18.4,-1.6 l -24,56 h -31.2 c -6.399991,0 -11.999991,5.6 -11.999991,12 0,6.4 5.6,12 11.999991,12 h 15.2 c 1.6,0 4,0 5.6,0 h 48 c 0.8,0 1.6,0.8 2.4,0.8 0.8,0 1.6,-0.8 3.2,-0.8 h 32.8 c 0.8,0 1.6,0.8 3.2,0.8 0.8,0 1.6,-0.8 2.4,-0.8 h 151.2 c 1.6,0 4,0 5.6,0 h 14.4 c 6.4,0 12,-5.6 12,-12 0,-6.4 -5.6,-12 -12,-12 z"
     id="path30"
     inkscape:connector-curvature="0" /><path
     style="fill:#eae4be"
     d="m 252.22897,258.72816 12,-12 12,12 12,-12 12,12 20,-20 -34.4,-45.6 c -4,-5.6 -14.4,-5.6 -18.4,0.8 l -24,54.4 z"
     id="path50"
     inkscape:connector-curvature="0" /><rect
     x="37.327282"
     y="474.80951"
     style="fill:#e8e8e8"
     width="448"
     height="24"
     id="rect52" /><g
     id="g64"
     transform="translate(5.3272838,16.097652)" /><g
     id="g66"
     transform="translate(5.3272838,16.097652)" /><g
     id="g68"
     transform="translate(5.3272838,16.097652)" /><g
     id="g70"
     transform="translate(5.3272838,16.097652)" /><g
     id="g72"
     transform="translate(5.3272838,16.097652)" /><g
     id="g74"
     transform="translate(5.3272838,16.097652)" /><g
     id="g76"
     transform="translate(5.3272838,16.097652)" /><g
     id="g78"
     transform="translate(5.3272838,16.097652)" /><g
     id="g80"
     transform="translate(5.3272838,16.097652)" /><g
     id="g82"
     transform="translate(5.3272838,16.097652)" /><g
     id="g84"
     transform="translate(5.3272838,16.097652)" /><g
     id="g86"
     transform="translate(5.3272838,16.097652)" /><g
     id="g88"
     transform="translate(5.3272838,16.097652)" /><g
     id="g90"
     transform="translate(5.3272838,16.097652)" /><g
     id="g92"
     transform="translate(5.3272838,16.097652)" /><flowRoot
     xml:space="preserve"
     id="flowRoot4584"
     style="font-style:normal;font-weight:normal;font-size:40px;line-height:1.25;font-family:sans-serif;letter-spacing:0px;word-spacing:0px;fill:#000000;fill-opacity:1;stroke:none"
     transform="translate(5.3272838,16.097652)"><flowRegion
       id="flowRegion4586"><rect
         id="rect4588"
         width="113.0983"
         height="253.81017"
         x="256.79999"
         y="192.8" /></flowRegion><flowPara
       id="flowPara4590" /></flowRoot><text
     xml:space="preserve"
     style="font-style:normal;font-weight:normal;font-size:162.15185547px;line-height:1.25;font-family:sans-serif;letter-spacing:0px;word-spacing:0px;fill:url(#linearGradient5602);fill-opacity:1;stroke:none;stroke-width:4.05379629"
     x="109.06311"
     y="438.30539"
     id="text4578-3"
     transform="scale(0.94462942,1.0586162)"><tspan
       sodipodi:role="line"
       id="tspan4576-0"
       x="109.06311"
       y="438.30539"
       style="font-style:normal;font-variant:normal;font-weight:bold;font-stretch:normal;font-size:162.14930725px;font-family:Caladea;-inkscape-font-specification:'Caladea, Bold';font-variant-ligatures:normal;font-variant-caps:normal;font-variant-numeric:normal;font-feature-settings:normal;text-align:start;writing-mode:lr-tb;text-anchor:start;fill:url(#linearGradient5602);fill-opacity:1;stroke-width:4.05379629">YOK </tspan><tspan
       sodipodi:role="line"
       x="109.06311"
       y="640.99518"
       id="tspan4580-4"
       style="font-style:normal;font-variant:normal;font-weight:bold;font-stretch:normal;font-size:162.14930725px;font-family:Caladea;-inkscape-font-specification:'Caladea, Bold';font-variant-ligatures:normal;font-variant-caps:normal;font-variant-numeric:normal;font-feature-settings:normal;text-align:start;writing-mode:lr-tb;text-anchor:start;fill:url(#linearGradient5602);fill-opacity:1;stroke-width:4.05379629" /></text>
<text
     xml:space="preserve"
     style="font-style:normal;font-weight:normal;font-size:137.91674805px;line-height:1.25;font-family:sans-serif;letter-spacing:0px;word-spacing:0px;fill:url(#linearGradient5606);fill-opacity:1;stroke:none;stroke-width:3.44791889"
     x="13.924078"
     y="117.77904"
     id="text4578-4"
     transform="scale(1.1668388,0.85701641)"><tspan
       sodipodi:role="line"
       x="13.924078"
       y="117.77904"
       style="font-style:normal;font-variant:normal;font-weight:bold;font-stretch:normal;font-size:137.91456604px;font-family:Caladea;-inkscape-font-specification:'Caladea, Bold';font-variant-ligatures:normal;font-variant-caps:normal;font-variant-numeric:normal;font-feature-settings:normal;text-align:start;writing-mode:lr-tb;text-anchor:start;fill:url(#linearGradient5606);fill-opacity:1;stroke-width:3.44791889"
       id="tspan6233">RESİM</tspan><tspan
       sodipodi:role="line"
       x="13.924078"
       y="290.17496"
       id="tspan4580-1"
       style="font-style:normal;font-variant:normal;font-weight:bold;font-stretch:normal;font-size:137.91456604px;font-family:Caladea;-inkscape-font-specification:'Caladea, Bold';font-variant-ligatures:normal;font-variant-caps:normal;font-variant-numeric:normal;font-feature-settings:normal;text-align:start;writing-mode:lr-tb;text-anchor:start;fill:url(#linearGradient5606);fill-opacity:1;stroke-width:3.44791889" /></text>
</svg>