<?xml version="1.0" encoding="UTF-8" standalone="no"?>
<!-- Generator: Adobe Illustrator 19.0.0, SVG Export Plug-In . SVG Version: 6.00 Build 0)  -->

<svg
   xmlns:osb="http://www.openswatchbook.org/uri/2009/osb"
   xmlns:dc="http://purl.org/dc/elements/1.1/"
   xmlns:cc="http://creativecommons.org/ns#"
   xmlns:rdf="http://www.w3.org/1999/02/22-rdf-syntax-ns#"
   xmlns:svg="http://www.w3.org/2000/svg"
   xmlns="http://www.w3.org/2000/svg"
   xmlns:xlink="http://www.w3.org/1999/xlink"
   xmlns:sodipodi="http://sodipodi.sourceforge.net/DTD/sodipodi-0.dtd"
   xmlns:inkscape="http://www.inkscape.org/namespaces/inkscape"
   version="1.1"
   id="Layer_1"
   x="0px"
   y="0px"
   viewBox="0 0 496 496"
   style="enable-background:new 0 0 496 496;"
   xml:space="preserve"
   sodipodi:docname="rsm_yok2.svg"
   inkscape:version="0.92.1 r15371"><metadata
     id="metadata99"><rdf:RDF><cc:Work
         rdf:about=""><dc:format>image/svg+xml</dc:format><dc:type
           rdf:resource="http://purl.org/dc/dcmitype/StillImage" /><dc:title></dc:title></cc:Work></rdf:RDF></metadata><defs
     id="defs97"><linearGradient
       id="linearGradient6058"
       osb:paint="solid"><stop
         style="stop-color:#000000;stop-opacity:1;"
         offset="0"
         id="stop6056" /></linearGradient><linearGradient
       inkscape:collect="always"
       xlink:href="#linearGradient6058"
       id="linearGradient6275"
       gradientUnits="userSpaceOnUse"
       gradientTransform="matrix(1.2911014,0,0,1.2911014,20.626355,278.45335)"
       x1="-2.1903231"
       y1="236.3584"
       x2="514.03229"
       y2="236.3584" /><linearGradient
       inkscape:collect="always"
       xlink:href="#linearGradient6058"
       id="linearGradient6378"
       gradientUnits="userSpaceOnUse"
       gradientTransform="matrix(0.84748807,0,0,0.84748815,38.15764,13.713305)"
       x1="-2.1903231"
       y1="236.3584"
       x2="514.03227"
       y2="236.3584" /><linearGradient
       inkscape:collect="always"
       xlink:href="#linearGradient6058"
       id="linearGradient6382"
       gradientUnits="userSpaceOnUse"
       gradientTransform="matrix(0.78113369,0,0,0.78113375,25.891514,157.27104)"
       x1="-2.1903231"
       y1="236.3584"
       x2="514.03229"
       y2="236.3584" /></defs><sodipodi:namedview
     pagecolor="#ffffff"
     bordercolor="#666666"
     borderopacity="1"
     objecttolerance="10"
     gridtolerance="10"
     guidetolerance="10"
     inkscape:pageopacity="0"
     inkscape:pageshadow="2"
     inkscape:window-width="1440"
     inkscape:window-height="836"
     id="namedview95"
     showgrid="false"
     inkscape:zoom="0.9516129"
     inkscape:cx="466.15552"
     inkscape:cy="314.62399"
     inkscape:window-x="0"
     inkscape:window-y="0"
     inkscape:window-maximized="1"
     inkscape:current-layer="Layer_1" /><rect
     x="24"
     y="264"
     style="fill:#00ADDB;"
     width="456"
     height="104"
     id="rect18" /><path
     style="fill:#E8E8E8;"
     d="M472,0H24C10.4,0,0,10.4,0,24v448c0,12.8,10.4,24,24,24h448c12.8,0,24-10.4,24-24V24  C496,10.4,485.6,0,472,0z M464,32v288H32V32H464z"
     id="path20" /><path
     style="fill:#F2F2F2;"
     d="M24,496h27.2l173.6-176H32V32h432v49.6l32-31.2V24c0-12.8-10.4-24-24-24H24C10.4,0,0,10.4,0,24v448  C0,485.6,10.4,496,24,496z"
     id="path22" /><path
     style="fill:#EAE4BE;"
     d="M169.6,179.2c-11.2,0-22.4-4.8-30.4-12.8S126.4,148,126.4,136s4.8-22.4,12.8-30.4  c4.8-4.8,12-4.8,16.8,0s4.8,12,0,16.8c-4,4-5.6,8.8-5.6,13.6s2.4,10.4,5.6,13.6c7.2,7.2,20,7.2,27.2,0c4.8-4.8,12-4.8,16.8,0  s4.8,12,0,16.8C192,174.4,181.6,179.2,169.6,179.2z"
     id="path24" /><path
     style="fill:#FCF8E6;"
     d="M184,149.6c-7.2,7.2-20,7.2-27.2,0c-4-4-5.6-8.8-5.6-13.6s2.4-10.4,5.6-13.6c4.8-4.8,4.8-12,0-16.8  c-3.2-3.2-7.2-4-11.2-3.2c-6.4,8.8-9.6,17.6-9.6,27.2c0,11.2,4.8,22.4,12.8,30.4s18.4,12.8,30.4,12.8c8,0,15.2-2.4,21.6-6.4  c4.8-4.8,4-12,0-16C195.2,145.6,188,145.6,184,149.6z"
     id="path26" /><path
     style="fill:#19CBF4;"
     d="M382.4,264h-12l-93.6-124.8c-4-5.6-14.4-5.6-18.4,0.8l-68.8,92.8L172,209.6c-4-5.6-14.4-7.2-18.4-1.6  l-42.4,56H98.4c-6.4,0-12,5.6-12,12s5.6,12,12,12h15.2c1.6,0,4,0,5.6,0h48c0.8,0,1.6,0.8,2.4,0.8c0.8,0,1.6-0.8,3.2-0.8h32.8  c0.8,0,1.6,0.8,3.2,0.8c0.8,0,1.6-0.8,2.4-0.8h151.2c1.6,0,4,0,5.6,0h14.4c6.4,0,12-5.6,12-12C394.4,269.6,388.8,264,382.4,264z"
     id="path28" /><path
     style="fill:#00ADDB;"
     d="M382.4,264h-12l-93.6-124.8c-4-5.6-14.4-5.6-18.4,0.8l-52,115.2L172,209.6c-4-5.6-14.4-7.2-18.4-1.6  l-24,56H98.4c-6.4,0-12,5.6-12,12s5.6,12,12,12h15.2c1.6,0,4,0,5.6,0h48c0.8,0,1.6,0.8,2.4,0.8c0.8,0,1.6-0.8,3.2-0.8h32.8  c0.8,0,1.6,0.8,3.2,0.8c0.8,0,1.6-0.8,2.4-0.8h151.2c1.6,0,4,0,5.6,0h14.4c6.4,0,12-5.6,12-12S388.8,264,382.4,264z"
     id="path30" /><g
     id="g46"><path
       style="fill:#EAE4BE;"
       d="M201.6,50.4c0,1.6-0.8,2.4-2.4,2.4s-2.4-0.8-2.4-2.4c0-1.6,0.8-2.4,2.4-2.4S201.6,49.6,201.6,50.4z"
       id="path32" /><circle
       style="fill:#EAE4BE;"
       cx="228.8"
       cy="64"
       r="4.8"
       id="circle34" /><circle
       style="fill:#EAE4BE;"
       cx="261.6"
       cy="42.4"
       r="1.6"
       id="circle36" /><circle
       style="fill:#EAE4BE;"
       cx="280"
       cy="94.4"
       r="5.6"
       id="circle38" /><circle
       style="fill:#EAE4BE;"
       cx="194.4"
       cy="81.6"
       r="1.6"
       id="circle40" /><circle
       style="fill:#EAE4BE;"
       cx="228.8"
       cy="93.6"
       r="4"
       id="circle42" /><circle
       style="fill:#EAE4BE;"
       cx="152.8"
       cy="54.4"
       r="3.2"
       id="circle44" /></g><path
     style="fill:#FCF8E6;"
     d="M276.8,140.8c-4-5.6-14.4-6.4-18.4-0.8l-32.8,44.8l20,20l12-12l12,12l12-12l12,12l19.2-19.2  L276.8,140.8z"
     id="path48" /><path
     style="fill:#EAE4BE;"
     d="M244.8,204.8l12-12l12,12l12-12l12,12l20-20l-34.4-45.6c-4-5.6-14.4-5.6-18.4,0.8l-24,54.4  L244.8,204.8z"
     id="path50" /><rect
     x="32"
     y="320"
     style="fill:#E8E8E8;"
     width="448"
     height="24"
     id="rect52" /><g
     id="g64" /><g
     id="g66" /><g
     id="g68" /><g
     id="g70" /><g
     id="g72" /><g
     id="g74" /><g
     id="g76" /><g
     id="g78" /><g
     id="g80" /><g
     id="g82" /><g
     id="g84" /><g
     id="g86" /><g
     id="g88" /><g
     id="g90" /><g
     id="g92" /><flowRoot
     xml:space="preserve"
     id="flowRoot4584"
     style="fill:black;fill-opacity:1;stroke:none;font-family:sans-serif;font-style:normal;font-weight:normal;font-size:40px;line-height:1.25;letter-spacing:0px;word-spacing:0px"><flowRegion
       id="flowRegion4586"><rect
         id="rect4588"
         width="113.0983"
         height="253.81017"
         x="256.79999"
         y="192.8" /></flowRegion><flowPara
       id="flowPara4590"></flowPara></flowRoot><text
     xml:space="preserve"
     style="font-style:normal;font-weight:normal;font-size:177.18130493px;line-height:1.25;font-family:sans-serif;letter-spacing:0px;word-spacing:0px;fill:url(#linearGradient6275);fill-opacity:1;stroke:none;stroke-width:4.42953253"
     x="17.798437"
     y="417.46866"
     id="text4578-3"
     transform="scale(0.88291553,1.1326112)"><tspan
       sodipodi:role="line"
       id="tspan4576-0"
       x="17.798437"
       y="417.46866"
       style="font-style:normal;font-variant:normal;font-weight:bold;font-stretch:normal;font-size:177.17851257px;font-family:Caladea;-inkscape-font-specification:'Caladea, Bold';font-variant-ligatures:normal;font-variant-caps:normal;font-variant-numeric:normal;font-feature-settings:normal;text-align:start;writing-mode:lr-tb;text-anchor:start;fill:url(#linearGradient6275);fill-opacity:1;stroke-width:4.42953253">YOK </tspan><tspan
       sodipodi:role="line"
       x="17.798437"
       y="638.94531"
       id="tspan4580-4"
       style="font-style:normal;font-variant:normal;font-weight:bold;font-stretch:normal;font-size:177.17851257px;font-family:Caladea;-inkscape-font-specification:'Caladea, Bold';font-variant-ligatures:normal;font-variant-caps:normal;font-variant-numeric:normal;font-feature-settings:normal;text-align:start;writing-mode:lr-tb;text-anchor:start;fill:url(#linearGradient6275);fill-opacity:1;stroke-width:4.42953253" /></text>
</svg>